<mxfile host="Electron" modified="2023-12-20T17:11:16.056Z" agent="Mozilla/5.0 (Windows NT 10.0; Win64; x64) AppleWebKit/537.36 (KHTML, like Gecko) draw.io/22.1.11 Chrome/114.0.5735.289 Electron/25.9.8 Safari/537.36" etag="yScbJnA4JBhrbkHJLAJp" version="22.1.11" type="device">
  <diagram name="Page-1" id="c4acf3e9-155e-7222-9cf6-157b1a14988f">
    <mxGraphModel dx="1169" dy="638" grid="0" gridSize="10" guides="1" tooltips="1" connect="1" arrows="1" fold="1" page="0" pageScale="1" pageWidth="850" pageHeight="1100" background="none" math="0" shadow="0">
      <root>
        <mxCell id="0" />
        <mxCell id="1" parent="0" />
        <mxCell id="B0o4pq8hTxPnNOwfh83C-87" style="edgeStyle=orthogonalEdgeStyle;rounded=0;orthogonalLoop=1;jettySize=auto;html=1;entryX=0;entryY=0.5;entryDx=0;entryDy=0;dashed=1;endArrow=open;endFill=0;exitX=1;exitY=0.25;exitDx=0;exitDy=0;" edge="1" parent="1" source="17acba5748e5396b-20" target="B0o4pq8hTxPnNOwfh83C-66">
          <mxGeometry relative="1" as="geometry">
            <mxPoint x="1470" y="65" as="targetPoint" />
            <Array as="points">
              <mxPoint x="1242" y="-76" />
              <mxPoint x="1242" y="25" />
            </Array>
          </mxGeometry>
        </mxCell>
        <mxCell id="17acba5748e5396b-20" value="AuthorRepository" style="swimlane;html=1;fontStyle=0;childLayout=stackLayout;horizontal=1;startSize=26;fillColor=none;horizontalStack=0;resizeParent=1;resizeLast=0;collapsible=1;marginBottom=0;swimlaneFillColor=#ffffff;rounded=0;shadow=0;comic=0;labelBackgroundColor=none;strokeWidth=1;fontFamily=Verdana;fontSize=10;align=center;" parent="1" vertex="1">
          <mxGeometry x="810" y="-92" width="160" height="63" as="geometry" />
        </mxCell>
        <mxCell id="17acba5748e5396b-21" value="- _context: ChirpContext" style="text;html=1;strokeColor=none;fillColor=none;align=left;verticalAlign=top;spacingLeft=4;spacingRight=4;whiteSpace=wrap;overflow=hidden;rotatable=0;points=[[0,0.5],[1,0.5]];portConstraint=eastwest;" parent="17acba5748e5396b-20" vertex="1">
          <mxGeometry y="26" width="160" height="26" as="geometry" />
        </mxCell>
        <mxCell id="5d2195bd80daf111-18" value="&lt;p style=&quot;margin:0px;margin-top:4px;text-align:center;&quot;&gt;&lt;i&gt;&amp;lt;&amp;lt;Interface&amp;gt;&amp;gt;&lt;/i&gt;&lt;br&gt;&lt;b&gt;IAuthorRepository&lt;/b&gt;&lt;/p&gt;&lt;hr size=&quot;1&quot;&gt;&lt;p style=&quot;margin:0px;margin-left:4px;&quot;&gt;+ CreateAuthor(AuthorDTO): void&lt;br&gt;+ DeleteAuthor(string): void&lt;/p&gt;&lt;p style=&quot;margin:0px;margin-left:4px;&quot;&gt;+ CheckAuthorExistsAsync(string): Task&amp;lt;bool&amp;gt;&lt;/p&gt;&lt;p style=&quot;margin:0px;margin-left:4px;&quot;&gt;+ GetAuthorAsync(string): Task&amp;lt;AuthorDTO&amp;gt;&lt;/p&gt;" style="verticalAlign=top;align=left;overflow=fill;fontSize=12;fontFamily=Helvetica;html=1;rounded=0;shadow=0;comic=0;labelBackgroundColor=none;strokeWidth=1" parent="1" vertex="1">
          <mxGeometry x="-132" y="-117" width="390" height="130" as="geometry" />
        </mxCell>
        <mxCell id="5d2195bd80daf111-19" value="&lt;p style=&quot;margin:0px;margin-top:4px;text-align:center;&quot;&gt;&lt;i&gt;&amp;lt;&amp;lt;Interface&amp;gt;&amp;gt;&lt;/i&gt;&lt;br&gt;&lt;b&gt;ICheepRepository&lt;/b&gt;&lt;/p&gt;&lt;hr size=&quot;1&quot;&gt;&lt;p style=&quot;margin:0px;margin-left:4px;&quot;&gt;+CreateCheep(CheepDTO): void&lt;/p&gt;&lt;p style=&quot;margin:0px;margin-left:4px;&quot;&gt;+DeleteCheepsFromAuthor(string): void&lt;/p&gt;&lt;p style=&quot;margin:0px;margin-left:4px;&quot;&gt;+GetAllCheepCountAsync(): Task&amp;lt;int&amp;gt;&lt;/p&gt;&lt;p style=&quot;margin:0px;margin-left:4px;&quot;&gt;+GetMyCheepCountAsync(string): Task&amp;lt;int&amp;gt;&lt;/p&gt;&lt;p style=&quot;margin:0px;margin-left:4px;&quot;&gt;+GetUserCheepCountAsync(string, IEnumerable&amp;lt;string&amp;gt;): Task&amp;lt;int&amp;gt;&lt;/p&gt;&lt;p style=&quot;margin:0px;margin-left:4px;&quot;&gt;+GetAllCheepsAsync(int, int): Task&amp;lt;IEnumerable&amp;lt;CheepDTO&amp;gt;&amp;gt;&lt;/p&gt;&lt;p style=&quot;margin:0px;margin-left:4px;&quot;&gt;+GetMyCheepsAsync(string, int, int): Task&amp;lt;IEnumerable&amp;lt;CheepDTO&amp;gt;&amp;gt;&lt;/p&gt;&lt;p style=&quot;margin:0px;margin-left:4px;&quot;&gt;+GetUserCheepsAsync(string, IEnumerable&amp;lt;string&amp;gt;, int, int): Task&amp;lt;IEnumerable&amp;lt;CheepDTO&amp;gt;&amp;gt;&lt;/p&gt;" style="verticalAlign=top;align=left;overflow=fill;fontSize=12;fontFamily=Helvetica;html=1;rounded=0;shadow=0;comic=0;labelBackgroundColor=none;strokeWidth=1" parent="1" vertex="1">
          <mxGeometry x="-217" y="147.5" width="560" height="180" as="geometry" />
        </mxCell>
        <mxCell id="5d2195bd80daf111-20" value="&lt;p style=&quot;margin:0px;margin-top:4px;text-align:center;&quot;&gt;&lt;i&gt;&amp;lt;&amp;lt;Interface&amp;gt;&amp;gt;&lt;/i&gt;&lt;br&gt;&lt;b&gt;IFollowRepository&lt;/b&gt;&lt;/p&gt;&lt;hr size=&quot;1&quot;&gt;&lt;p style=&quot;margin:0px;margin-left:4px;&quot;&gt;+CreateFollow(string, string): void&lt;/p&gt;&lt;p style=&quot;margin:0px;margin-left:4px;&quot;&gt;+DeleteFollow(string, string): void&lt;/p&gt;&lt;p style=&quot;margin:0px;margin-left:4px;&quot;&gt;+DeleteFollowsFromAuthor(string): void&lt;/p&gt;&lt;p style=&quot;margin:0px;margin-left:4px;&quot;&gt;+CheckFollowExistsAsync(string, string): Task&amp;lt;bool&amp;gt;&lt;/p&gt;&lt;p style=&quot;margin:0px;margin-left:4px;&quot;&gt;+GetFollowersCountAsync(string): Task&amp;lt;int&amp;gt;&lt;/p&gt;&lt;p style=&quot;margin:0px;margin-left:4px;&quot;&gt;+GetFollowingsCountAsync(string): Task&amp;lt;int&amp;gt;&lt;/p&gt;&lt;p style=&quot;margin:0px;margin-left:4px;&quot;&gt;+GetFollowersAsync(string): Task&amp;lt;IEnumerable&amp;lt;string&amp;gt;&amp;gt;&lt;/p&gt;&lt;p style=&quot;margin:0px;margin-left:4px;&quot;&gt;+GetFollowingsAsync(string): Task&amp;lt;IEnumerable&amp;lt;string&amp;gt;&amp;gt;&lt;/p&gt;" style="verticalAlign=top;align=left;overflow=fill;fontSize=12;fontFamily=Helvetica;html=1;rounded=0;shadow=0;comic=0;labelBackgroundColor=none;strokeWidth=1" parent="1" vertex="1">
          <mxGeometry x="-122" y="400" width="370" height="170" as="geometry" />
        </mxCell>
        <mxCell id="B0o4pq8hTxPnNOwfh83C-10" style="edgeStyle=orthogonalEdgeStyle;rounded=0;orthogonalLoop=1;jettySize=auto;html=1;dashed=1;endArrow=open;endFill=0;" edge="1" parent="1" source="B0o4pq8hTxPnNOwfh83C-1" target="17acba5748e5396b-20">
          <mxGeometry relative="1" as="geometry" />
        </mxCell>
        <mxCell id="B0o4pq8hTxPnNOwfh83C-1" value="AuthorValidator" style="swimlane;html=1;fontStyle=0;childLayout=stackLayout;horizontal=1;startSize=26;fillColor=none;horizontalStack=0;resizeParent=1;resizeLast=0;collapsible=1;marginBottom=0;swimlaneFillColor=#ffffff;rounded=0;shadow=0;comic=0;labelBackgroundColor=none;strokeWidth=1;fontFamily=Verdana;fontSize=10;align=center;" vertex="1" parent="1">
          <mxGeometry x="680" y="-233" width="160" height="50" as="geometry" />
        </mxCell>
        <mxCell id="B0o4pq8hTxPnNOwfh83C-9" style="edgeStyle=orthogonalEdgeStyle;rounded=0;orthogonalLoop=1;jettySize=auto;html=1;dashed=1;endArrow=open;endFill=0;" edge="1" parent="1" source="B0o4pq8hTxPnNOwfh83C-5" target="17acba5748e5396b-20">
          <mxGeometry relative="1" as="geometry" />
        </mxCell>
        <mxCell id="B0o4pq8hTxPnNOwfh83C-5" value="Author" style="swimlane;html=1;fontStyle=0;childLayout=stackLayout;horizontal=1;startSize=26;fillColor=none;horizontalStack=0;resizeParent=1;resizeLast=0;collapsible=1;marginBottom=0;swimlaneFillColor=#ffffff;rounded=0;shadow=0;comic=0;labelBackgroundColor=none;strokeWidth=1;fontFamily=Verdana;fontSize=10;align=center;" vertex="1" parent="1">
          <mxGeometry x="994" y="-303" width="210" height="182" as="geometry" />
        </mxCell>
        <mxCell id="B0o4pq8hTxPnNOwfh83C-6" value="+ AuthorId: Guid" style="text;html=1;strokeColor=none;fillColor=none;align=left;verticalAlign=top;spacingLeft=4;spacingRight=4;whiteSpace=wrap;overflow=hidden;rotatable=0;points=[[0,0.5],[1,0.5]];portConstraint=eastwest;" vertex="1" parent="B0o4pq8hTxPnNOwfh83C-5">
          <mxGeometry y="26" width="210" height="26" as="geometry" />
        </mxCell>
        <mxCell id="B0o4pq8hTxPnNOwfh83C-7" value="+ Name: string" style="text;html=1;strokeColor=none;fillColor=none;align=left;verticalAlign=top;spacingLeft=4;spacingRight=4;whiteSpace=wrap;overflow=hidden;rotatable=0;points=[[0,0.5],[1,0.5]];portConstraint=eastwest;" vertex="1" parent="B0o4pq8hTxPnNOwfh83C-5">
          <mxGeometry y="52" width="210" height="26" as="geometry" />
        </mxCell>
        <mxCell id="B0o4pq8hTxPnNOwfh83C-8" value="+ Email: string" style="text;html=1;strokeColor=none;fillColor=none;align=left;verticalAlign=top;spacingLeft=4;spacingRight=4;whiteSpace=wrap;overflow=hidden;rotatable=0;points=[[0,0.5],[1,0.5]];portConstraint=eastwest;" vertex="1" parent="B0o4pq8hTxPnNOwfh83C-5">
          <mxGeometry y="78" width="210" height="26" as="geometry" />
        </mxCell>
        <mxCell id="B0o4pq8hTxPnNOwfh83C-93" value="+ Cheeps: ICollection&amp;lt;Cheep&amp;gt;" style="text;html=1;strokeColor=none;fillColor=none;align=left;verticalAlign=top;spacingLeft=4;spacingRight=4;whiteSpace=wrap;overflow=hidden;rotatable=0;points=[[0,0.5],[1,0.5]];portConstraint=eastwest;" vertex="1" parent="B0o4pq8hTxPnNOwfh83C-5">
          <mxGeometry y="104" width="210" height="26" as="geometry" />
        </mxCell>
        <mxCell id="B0o4pq8hTxPnNOwfh83C-94" value="+ Following: ICollection&amp;lt;Follow&amp;gt;" style="text;html=1;strokeColor=none;fillColor=none;align=left;verticalAlign=top;spacingLeft=4;spacingRight=4;whiteSpace=wrap;overflow=hidden;rotatable=0;points=[[0,0.5],[1,0.5]];portConstraint=eastwest;" vertex="1" parent="B0o4pq8hTxPnNOwfh83C-5">
          <mxGeometry y="130" width="210" height="26" as="geometry" />
        </mxCell>
        <mxCell id="B0o4pq8hTxPnNOwfh83C-95" value="+ Follower: ICollection&amp;lt;Follow&amp;gt;" style="text;html=1;strokeColor=none;fillColor=none;align=left;verticalAlign=top;spacingLeft=4;spacingRight=4;whiteSpace=wrap;overflow=hidden;rotatable=0;points=[[0,0.5],[1,0.5]];portConstraint=eastwest;" vertex="1" parent="B0o4pq8hTxPnNOwfh83C-5">
          <mxGeometry y="156" width="210" height="26" as="geometry" />
        </mxCell>
        <mxCell id="B0o4pq8hTxPnNOwfh83C-16" style="edgeStyle=orthogonalEdgeStyle;rounded=0;orthogonalLoop=1;jettySize=auto;html=1;entryX=0;entryY=0.5;entryDx=0;entryDy=0;endArrow=open;endFill=0;dashed=1;" edge="1" parent="1" source="B0o4pq8hTxPnNOwfh83C-12" target="5d2195bd80daf111-18">
          <mxGeometry relative="1" as="geometry" />
        </mxCell>
        <mxCell id="B0o4pq8hTxPnNOwfh83C-12" value="AuthorDTO" style="swimlane;html=1;fontStyle=0;childLayout=stackLayout;horizontal=1;startSize=26;fillColor=none;horizontalStack=0;resizeParent=1;resizeLast=0;collapsible=1;marginBottom=0;swimlaneFillColor=#ffffff;rounded=0;shadow=0;comic=0;labelBackgroundColor=none;strokeWidth=1;fontFamily=Verdana;fontSize=10;align=center;" vertex="1" parent="1">
          <mxGeometry x="-433" y="-107" width="160" height="110" as="geometry" />
        </mxCell>
        <mxCell id="B0o4pq8hTxPnNOwfh83C-13" value="+ Name: string" style="text;html=1;strokeColor=none;fillColor=none;align=left;verticalAlign=top;spacingLeft=4;spacingRight=4;whiteSpace=wrap;overflow=hidden;rotatable=0;points=[[0,0.5],[1,0.5]];portConstraint=eastwest;" vertex="1" parent="B0o4pq8hTxPnNOwfh83C-12">
          <mxGeometry y="26" width="160" height="26" as="geometry" />
        </mxCell>
        <mxCell id="B0o4pq8hTxPnNOwfh83C-14" value="+ Email: string" style="text;html=1;strokeColor=none;fillColor=none;align=left;verticalAlign=top;spacingLeft=4;spacingRight=4;whiteSpace=wrap;overflow=hidden;rotatable=0;points=[[0,0.5],[1,0.5]];portConstraint=eastwest;" vertex="1" parent="B0o4pq8hTxPnNOwfh83C-12">
          <mxGeometry y="52" width="160" height="26" as="geometry" />
        </mxCell>
        <mxCell id="B0o4pq8hTxPnNOwfh83C-21" style="edgeStyle=orthogonalEdgeStyle;rounded=0;orthogonalLoop=1;jettySize=auto;html=1;entryX=0;entryY=0.5;entryDx=0;entryDy=0;endArrow=open;endFill=0;dashed=1;" edge="1" parent="1" source="B0o4pq8hTxPnNOwfh83C-17" target="5d2195bd80daf111-19">
          <mxGeometry relative="1" as="geometry" />
        </mxCell>
        <mxCell id="B0o4pq8hTxPnNOwfh83C-17" value="CheepDTO" style="swimlane;html=1;fontStyle=0;childLayout=stackLayout;horizontal=1;startSize=26;fillColor=none;horizontalStack=0;resizeParent=1;resizeLast=0;collapsible=1;marginBottom=0;swimlaneFillColor=#ffffff;rounded=0;shadow=0;comic=0;labelBackgroundColor=none;strokeWidth=1;fontFamily=Verdana;fontSize=10;align=center;" vertex="1" parent="1">
          <mxGeometry x="-463" y="183" width="160" height="110" as="geometry" />
        </mxCell>
        <mxCell id="B0o4pq8hTxPnNOwfh83C-18" value="+ Author: string" style="text;html=1;strokeColor=none;fillColor=none;align=left;verticalAlign=top;spacingLeft=4;spacingRight=4;whiteSpace=wrap;overflow=hidden;rotatable=0;points=[[0,0.5],[1,0.5]];portConstraint=eastwest;" vertex="1" parent="B0o4pq8hTxPnNOwfh83C-17">
          <mxGeometry y="26" width="160" height="26" as="geometry" />
        </mxCell>
        <mxCell id="B0o4pq8hTxPnNOwfh83C-19" value="+ Text: string" style="text;html=1;strokeColor=none;fillColor=none;align=left;verticalAlign=top;spacingLeft=4;spacingRight=4;whiteSpace=wrap;overflow=hidden;rotatable=0;points=[[0,0.5],[1,0.5]];portConstraint=eastwest;" vertex="1" parent="B0o4pq8hTxPnNOwfh83C-17">
          <mxGeometry y="52" width="160" height="26" as="geometry" />
        </mxCell>
        <mxCell id="B0o4pq8hTxPnNOwfh83C-20" value="+ TimeStamp: string" style="text;html=1;strokeColor=none;fillColor=none;align=left;verticalAlign=top;spacingLeft=4;spacingRight=4;whiteSpace=wrap;overflow=hidden;rotatable=0;points=[[0,0.5],[1,0.5]];portConstraint=eastwest;" vertex="1" parent="B0o4pq8hTxPnNOwfh83C-17">
          <mxGeometry y="78" width="160" height="26" as="geometry" />
        </mxCell>
        <mxCell id="B0o4pq8hTxPnNOwfh83C-23" value="&lt;font style=&quot;font-size: 32px;&quot;&gt;Chirp.Core&lt;/font&gt;" style="text;html=1;strokeColor=none;fillColor=none;align=center;verticalAlign=middle;whiteSpace=wrap;rounded=0;" vertex="1" parent="1">
          <mxGeometry x="10" y="-350" width="60" height="30" as="geometry" />
        </mxCell>
        <mxCell id="B0o4pq8hTxPnNOwfh83C-86" style="edgeStyle=orthogonalEdgeStyle;rounded=0;orthogonalLoop=1;jettySize=auto;html=1;entryX=0;entryY=0.25;entryDx=0;entryDy=0;dashed=1;endArrow=open;endFill=0;" edge="1" parent="1" source="B0o4pq8hTxPnNOwfh83C-24" target="B0o4pq8hTxPnNOwfh83C-65">
          <mxGeometry relative="1" as="geometry">
            <mxPoint x="1470" y="65" as="targetPoint" />
            <Array as="points">
              <mxPoint x="875" y="392" />
              <mxPoint x="1520" y="392" />
              <mxPoint x="1520" y="-5" />
            </Array>
          </mxGeometry>
        </mxCell>
        <mxCell id="B0o4pq8hTxPnNOwfh83C-24" value="CheepRepository" style="swimlane;html=1;fontStyle=0;childLayout=stackLayout;horizontal=1;startSize=26;fillColor=none;horizontalStack=0;resizeParent=1;resizeLast=0;collapsible=1;marginBottom=0;swimlaneFillColor=#ffffff;rounded=0;shadow=0;comic=0;labelBackgroundColor=none;strokeWidth=1;fontFamily=Verdana;fontSize=10;align=center;" vertex="1" parent="1">
          <mxGeometry x="795" y="200" width="160" height="63" as="geometry" />
        </mxCell>
        <mxCell id="B0o4pq8hTxPnNOwfh83C-25" value="- _context: ChirpContext" style="text;html=1;strokeColor=none;fillColor=none;align=left;verticalAlign=top;spacingLeft=4;spacingRight=4;whiteSpace=wrap;overflow=hidden;rotatable=0;points=[[0,0.5],[1,0.5]];portConstraint=eastwest;" vertex="1" parent="B0o4pq8hTxPnNOwfh83C-24">
          <mxGeometry y="26" width="160" height="26" as="geometry" />
        </mxCell>
        <mxCell id="B0o4pq8hTxPnNOwfh83C-28" style="edgeStyle=orthogonalEdgeStyle;rounded=0;orthogonalLoop=1;jettySize=auto;html=1;dashed=1;endArrow=open;endFill=0;" edge="1" parent="1" source="B0o4pq8hTxPnNOwfh83C-29" target="B0o4pq8hTxPnNOwfh83C-24">
          <mxGeometry relative="1" as="geometry" />
        </mxCell>
        <mxCell id="B0o4pq8hTxPnNOwfh83C-29" value="CheepValidator" style="swimlane;html=1;fontStyle=0;childLayout=stackLayout;horizontal=1;startSize=26;fillColor=none;horizontalStack=0;resizeParent=1;resizeLast=0;collapsible=1;marginBottom=0;swimlaneFillColor=#ffffff;rounded=0;shadow=0;comic=0;labelBackgroundColor=none;strokeWidth=1;fontFamily=Verdana;fontSize=10;align=center;" vertex="1" parent="1">
          <mxGeometry x="680" y="51" width="160" height="50" as="geometry" />
        </mxCell>
        <mxCell id="B0o4pq8hTxPnNOwfh83C-33" style="edgeStyle=orthogonalEdgeStyle;rounded=0;orthogonalLoop=1;jettySize=auto;html=1;dashed=1;endArrow=open;endFill=0;" edge="1" parent="1" source="B0o4pq8hTxPnNOwfh83C-34" target="B0o4pq8hTxPnNOwfh83C-24">
          <mxGeometry relative="1" as="geometry" />
        </mxCell>
        <mxCell id="B0o4pq8hTxPnNOwfh83C-34" value="Cheep" style="swimlane;html=1;fontStyle=0;childLayout=stackLayout;horizontal=1;startSize=26;fillColor=none;horizontalStack=0;resizeParent=1;resizeLast=0;collapsible=1;marginBottom=0;swimlaneFillColor=#ffffff;rounded=0;shadow=0;comic=0;labelBackgroundColor=none;strokeWidth=1;fontFamily=Verdana;fontSize=10;align=center;" vertex="1" parent="1">
          <mxGeometry x="993" y="-16" width="160" height="163" as="geometry" />
        </mxCell>
        <mxCell id="B0o4pq8hTxPnNOwfh83C-35" value="+ CheepId: Guid" style="text;html=1;strokeColor=none;fillColor=none;align=left;verticalAlign=top;spacingLeft=4;spacingRight=4;whiteSpace=wrap;overflow=hidden;rotatable=0;points=[[0,0.5],[1,0.5]];portConstraint=eastwest;" vertex="1" parent="B0o4pq8hTxPnNOwfh83C-34">
          <mxGeometry y="26" width="160" height="26" as="geometry" />
        </mxCell>
        <mxCell id="B0o4pq8hTxPnNOwfh83C-36" value="+ AuthorId: Guid" style="text;html=1;strokeColor=none;fillColor=none;align=left;verticalAlign=top;spacingLeft=4;spacingRight=4;whiteSpace=wrap;overflow=hidden;rotatable=0;points=[[0,0.5],[1,0.5]];portConstraint=eastwest;" vertex="1" parent="B0o4pq8hTxPnNOwfh83C-34">
          <mxGeometry y="52" width="160" height="26" as="geometry" />
        </mxCell>
        <mxCell id="B0o4pq8hTxPnNOwfh83C-37" value="+ Text: string" style="text;html=1;strokeColor=none;fillColor=none;align=left;verticalAlign=top;spacingLeft=4;spacingRight=4;whiteSpace=wrap;overflow=hidden;rotatable=0;points=[[0,0.5],[1,0.5]];portConstraint=eastwest;" vertex="1" parent="B0o4pq8hTxPnNOwfh83C-34">
          <mxGeometry y="78" width="160" height="26" as="geometry" />
        </mxCell>
        <mxCell id="B0o4pq8hTxPnNOwfh83C-98" value="+ TimeStamp: DateTime" style="text;html=1;strokeColor=none;fillColor=none;align=left;verticalAlign=top;spacingLeft=4;spacingRight=4;whiteSpace=wrap;overflow=hidden;rotatable=0;points=[[0,0.5],[1,0.5]];portConstraint=eastwest;" vertex="1" parent="B0o4pq8hTxPnNOwfh83C-34">
          <mxGeometry y="104" width="160" height="26" as="geometry" />
        </mxCell>
        <mxCell id="B0o4pq8hTxPnNOwfh83C-97" value="+ Author: Author" style="text;html=1;strokeColor=none;fillColor=none;align=left;verticalAlign=top;spacingLeft=4;spacingRight=4;whiteSpace=wrap;overflow=hidden;rotatable=0;points=[[0,0.5],[1,0.5]];portConstraint=eastwest;" vertex="1" parent="B0o4pq8hTxPnNOwfh83C-34">
          <mxGeometry y="130" width="160" height="26" as="geometry" />
        </mxCell>
        <mxCell id="B0o4pq8hTxPnNOwfh83C-48" style="edgeStyle=orthogonalEdgeStyle;rounded=0;orthogonalLoop=1;jettySize=auto;html=1;dashed=1;endArrow=open;endFill=0;" edge="1" parent="1" source="B0o4pq8hTxPnNOwfh83C-49" target="B0o4pq8hTxPnNOwfh83C-39">
          <mxGeometry relative="1" as="geometry" />
        </mxCell>
        <mxCell id="B0o4pq8hTxPnNOwfh83C-49" value="Follow" style="swimlane;html=1;fontStyle=0;childLayout=stackLayout;horizontal=1;startSize=26;fillColor=none;horizontalStack=0;resizeParent=1;resizeLast=0;collapsible=1;marginBottom=0;swimlaneFillColor=#ffffff;rounded=0;shadow=0;comic=0;labelBackgroundColor=none;strokeWidth=1;fontFamily=Verdana;fontSize=10;align=center;" vertex="1" parent="1">
          <mxGeometry x="808" y="577" width="160" height="130" as="geometry" />
        </mxCell>
        <mxCell id="B0o4pq8hTxPnNOwfh83C-50" value="+ FollowerId: Guid" style="text;html=1;strokeColor=none;fillColor=none;align=left;verticalAlign=top;spacingLeft=4;spacingRight=4;whiteSpace=wrap;overflow=hidden;rotatable=0;points=[[0,0.5],[1,0.5]];portConstraint=eastwest;" vertex="1" parent="B0o4pq8hTxPnNOwfh83C-49">
          <mxGeometry y="26" width="160" height="26" as="geometry" />
        </mxCell>
        <mxCell id="B0o4pq8hTxPnNOwfh83C-51" value="+ FollowingId: Guid" style="text;html=1;strokeColor=none;fillColor=none;align=left;verticalAlign=top;spacingLeft=4;spacingRight=4;whiteSpace=wrap;overflow=hidden;rotatable=0;points=[[0,0.5],[1,0.5]];portConstraint=eastwest;" vertex="1" parent="B0o4pq8hTxPnNOwfh83C-49">
          <mxGeometry y="52" width="160" height="26" as="geometry" />
        </mxCell>
        <mxCell id="B0o4pq8hTxPnNOwfh83C-52" value="+ FollowerAuthor: Author" style="text;html=1;strokeColor=none;fillColor=none;align=left;verticalAlign=top;spacingLeft=4;spacingRight=4;whiteSpace=wrap;overflow=hidden;rotatable=0;points=[[0,0.5],[1,0.5]];portConstraint=eastwest;" vertex="1" parent="B0o4pq8hTxPnNOwfh83C-49">
          <mxGeometry y="78" width="160" height="26" as="geometry" />
        </mxCell>
        <mxCell id="B0o4pq8hTxPnNOwfh83C-99" value="+ FollowingAuthor: Author" style="text;html=1;strokeColor=none;fillColor=none;align=left;verticalAlign=top;spacingLeft=4;spacingRight=4;whiteSpace=wrap;overflow=hidden;rotatable=0;points=[[0,0.5],[1,0.5]];portConstraint=eastwest;" vertex="1" parent="B0o4pq8hTxPnNOwfh83C-49">
          <mxGeometry y="104" width="160" height="26" as="geometry" />
        </mxCell>
        <mxCell id="B0o4pq8hTxPnNOwfh83C-55" value="ChirpContext" style="swimlane;html=1;fontStyle=0;childLayout=stackLayout;horizontal=1;startSize=26;fillColor=none;horizontalStack=0;resizeParent=1;resizeLast=0;collapsible=1;marginBottom=0;swimlaneFillColor=#ffffff;rounded=0;shadow=0;comic=0;labelBackgroundColor=none;strokeWidth=1;fontFamily=Verdana;fontSize=10;align=center;" vertex="1" parent="1">
          <mxGeometry x="1257" y="160" width="160" height="110" as="geometry" />
        </mxCell>
        <mxCell id="B0o4pq8hTxPnNOwfh83C-56" value="+ Cheeps: DbSet&amp;lt;Cheep&amp;gt;" style="text;html=1;strokeColor=none;fillColor=none;align=left;verticalAlign=top;spacingLeft=4;spacingRight=4;whiteSpace=wrap;overflow=hidden;rotatable=0;points=[[0,0.5],[1,0.5]];portConstraint=eastwest;" vertex="1" parent="B0o4pq8hTxPnNOwfh83C-55">
          <mxGeometry y="26" width="160" height="26" as="geometry" />
        </mxCell>
        <mxCell id="B0o4pq8hTxPnNOwfh83C-57" value="+ Authors: DbSet&amp;lt;Author&amp;gt;" style="text;html=1;strokeColor=none;fillColor=none;align=left;verticalAlign=top;spacingLeft=4;spacingRight=4;whiteSpace=wrap;overflow=hidden;rotatable=0;points=[[0,0.5],[1,0.5]];portConstraint=eastwest;" vertex="1" parent="B0o4pq8hTxPnNOwfh83C-55">
          <mxGeometry y="52" width="160" height="26" as="geometry" />
        </mxCell>
        <mxCell id="B0o4pq8hTxPnNOwfh83C-58" value="+ Follows: DbSet&amp;lt;Follow&amp;gt;" style="text;html=1;strokeColor=none;fillColor=none;align=left;verticalAlign=top;spacingLeft=4;spacingRight=4;whiteSpace=wrap;overflow=hidden;rotatable=0;points=[[0,0.5],[1,0.5]];portConstraint=eastwest;" vertex="1" parent="B0o4pq8hTxPnNOwfh83C-55">
          <mxGeometry y="78" width="160" height="26" as="geometry" />
        </mxCell>
        <mxCell id="B0o4pq8hTxPnNOwfh83C-61" style="edgeStyle=orthogonalEdgeStyle;rounded=0;orthogonalLoop=1;jettySize=auto;html=1;entryX=0.5;entryY=0;entryDx=0;entryDy=0;dashed=1;endArrow=open;endFill=0;" edge="1" parent="1" source="B0o4pq8hTxPnNOwfh83C-7" target="B0o4pq8hTxPnNOwfh83C-55">
          <mxGeometry relative="1" as="geometry">
            <Array as="points">
              <mxPoint x="1337" y="-238" />
            </Array>
          </mxGeometry>
        </mxCell>
        <mxCell id="B0o4pq8hTxPnNOwfh83C-62" style="edgeStyle=orthogonalEdgeStyle;rounded=0;orthogonalLoop=1;jettySize=auto;html=1;entryX=0;entryY=0;entryDx=0;entryDy=0;dashed=1;endArrow=open;endFill=0;exitX=1;exitY=0.5;exitDx=0;exitDy=0;" edge="1" parent="1" source="B0o4pq8hTxPnNOwfh83C-34" target="B0o4pq8hTxPnNOwfh83C-55">
          <mxGeometry relative="1" as="geometry">
            <Array as="points">
              <mxPoint x="1180" y="69" />
            </Array>
          </mxGeometry>
        </mxCell>
        <mxCell id="B0o4pq8hTxPnNOwfh83C-63" style="edgeStyle=orthogonalEdgeStyle;rounded=0;orthogonalLoop=1;jettySize=auto;html=1;entryX=0;entryY=0.5;entryDx=0;entryDy=0;dashed=1;endArrow=open;endFill=0;" edge="1" parent="1" source="B0o4pq8hTxPnNOwfh83C-51" target="B0o4pq8hTxPnNOwfh83C-57">
          <mxGeometry relative="1" as="geometry">
            <mxPoint x="1260" y="420" as="targetPoint" />
          </mxGeometry>
        </mxCell>
        <mxCell id="B0o4pq8hTxPnNOwfh83C-64" value="&lt;font style=&quot;font-size: 32px;&quot;&gt;Chirp.Infrastructure&lt;br&gt;&lt;/font&gt;" style="text;html=1;strokeColor=none;fillColor=none;align=center;verticalAlign=middle;whiteSpace=wrap;rounded=0;" vertex="1" parent="1">
          <mxGeometry x="940" y="-350" width="60" height="30" as="geometry" />
        </mxCell>
        <mxCell id="B0o4pq8hTxPnNOwfh83C-65" value="RazorPages" style="swimlane;html=1;fontStyle=0;childLayout=stackLayout;horizontal=1;startSize=26;fillColor=none;horizontalStack=0;resizeParent=1;resizeLast=0;collapsible=1;marginBottom=0;swimlaneFillColor=#ffffff;rounded=1;shadow=0;comic=0;labelBackgroundColor=none;strokeWidth=1;fontFamily=Verdana;fontSize=10;align=center;swimlaneLine=1;" vertex="1" parent="1">
          <mxGeometry x="1680" y="-32.5" width="160" height="110" as="geometry" />
        </mxCell>
        <mxCell id="B0o4pq8hTxPnNOwfh83C-66" value="Folder of pages:&lt;br&gt;* ProfileModel&lt;br&gt;* PublicModel&lt;br&gt;* UserTimelineModel" style="text;html=1;strokeColor=none;fillColor=none;align=left;verticalAlign=top;spacingLeft=4;spacingRight=4;whiteSpace=wrap;overflow=hidden;rotatable=0;points=[[0,0.5],[1,0.5]];portConstraint=eastwest;" vertex="1" parent="B0o4pq8hTxPnNOwfh83C-65">
          <mxGeometry y="26" width="160" height="64" as="geometry" />
        </mxCell>
        <mxCell id="B0o4pq8hTxPnNOwfh83C-69" value="DbInitializer" style="swimlane;html=1;fontStyle=0;childLayout=stackLayout;horizontal=1;startSize=26;fillColor=none;horizontalStack=0;resizeParent=1;resizeLast=0;collapsible=1;marginBottom=0;swimlaneFillColor=#ffffff;rounded=0;shadow=0;comic=0;labelBackgroundColor=none;strokeWidth=1;fontFamily=Verdana;fontSize=10;align=center;" vertex="1" parent="1">
          <mxGeometry x="1680" y="117.5" width="210" height="60" as="geometry" />
        </mxCell>
        <mxCell id="B0o4pq8hTxPnNOwfh83C-70" value="+ SeedDatabase(ChirpContext): void" style="text;html=1;strokeColor=none;fillColor=none;align=left;verticalAlign=top;spacingLeft=4;spacingRight=4;whiteSpace=wrap;overflow=hidden;rotatable=0;points=[[0,0.5],[1,0.5]];portConstraint=eastwest;" vertex="1" parent="B0o4pq8hTxPnNOwfh83C-69">
          <mxGeometry y="26" width="210" height="26" as="geometry" />
        </mxCell>
        <mxCell id="B0o4pq8hTxPnNOwfh83C-73" value="Program" style="swimlane;html=1;fontStyle=0;childLayout=stackLayout;horizontal=1;startSize=26;fillColor=none;horizontalStack=0;resizeParent=1;resizeLast=0;collapsible=1;marginBottom=0;swimlaneFillColor=#ffffff;rounded=0;shadow=0;comic=0;labelBackgroundColor=none;strokeWidth=1;fontFamily=Verdana;fontSize=10;align=center;" vertex="1" parent="1">
          <mxGeometry x="1680" y="259.5" width="160" height="58" as="geometry" />
        </mxCell>
        <mxCell id="B0o4pq8hTxPnNOwfh83C-74" value="+ Main(string[]): void" style="text;html=1;strokeColor=none;fillColor=none;align=left;verticalAlign=top;spacingLeft=4;spacingRight=4;whiteSpace=wrap;overflow=hidden;rotatable=0;points=[[0,0.5],[1,0.5]];portConstraint=eastwest;" vertex="1" parent="B0o4pq8hTxPnNOwfh83C-73">
          <mxGeometry y="26" width="160" height="26" as="geometry" />
        </mxCell>
        <mxCell id="B0o4pq8hTxPnNOwfh83C-84" style="edgeStyle=orthogonalEdgeStyle;rounded=0;orthogonalLoop=1;jettySize=auto;html=1;entryX=1;entryY=0.5;entryDx=0;entryDy=0;dashed=1;endArrow=open;endFill=0;" edge="1" parent="1" source="B0o4pq8hTxPnNOwfh83C-77">
          <mxGeometry relative="1" as="geometry">
            <mxPoint x="1840" y="32.5" as="targetPoint" />
            <Array as="points">
              <mxPoint x="1920" y="462.5" />
              <mxPoint x="1920" y="32.5" />
            </Array>
          </mxGeometry>
        </mxCell>
        <mxCell id="B0o4pq8hTxPnNOwfh83C-77" value="Utility" style="swimlane;html=1;fontStyle=0;childLayout=stackLayout;horizontal=1;startSize=26;fillColor=none;horizontalStack=0;resizeParent=1;resizeLast=0;collapsible=1;marginBottom=0;swimlaneFillColor=#ffffff;rounded=0;shadow=0;comic=0;labelBackgroundColor=none;strokeWidth=1;fontFamily=Verdana;fontSize=10;align=center;" vertex="1" parent="1">
          <mxGeometry x="1680" y="377.5" width="190" height="60" as="geometry" />
        </mxCell>
        <mxCell id="B0o4pq8hTxPnNOwfh83C-78" value="+ GetTimeStamp(double): string" style="text;html=1;strokeColor=none;fillColor=none;align=left;verticalAlign=top;spacingLeft=4;spacingRight=4;whiteSpace=wrap;overflow=hidden;rotatable=0;points=[[0,0.5],[1,0.5]];portConstraint=eastwest;" vertex="1" parent="B0o4pq8hTxPnNOwfh83C-77">
          <mxGeometry y="26" width="190" height="26" as="geometry" />
        </mxCell>
        <mxCell id="B0o4pq8hTxPnNOwfh83C-82" style="edgeStyle=orthogonalEdgeStyle;rounded=0;orthogonalLoop=1;jettySize=auto;html=1;entryX=0;entryY=0.5;entryDx=0;entryDy=0;dashed=1;endArrow=open;endFill=0;" edge="1" parent="1" source="B0o4pq8hTxPnNOwfh83C-57" target="B0o4pq8hTxPnNOwfh83C-69">
          <mxGeometry relative="1" as="geometry">
            <mxPoint x="1470" y="215" as="targetPoint" />
          </mxGeometry>
        </mxCell>
        <mxCell id="B0o4pq8hTxPnNOwfh83C-83" style="edgeStyle=orthogonalEdgeStyle;rounded=0;orthogonalLoop=1;jettySize=auto;html=1;dashed=1;endArrow=open;endFill=0;entryX=0;entryY=0.25;entryDx=0;entryDy=0;" edge="1" parent="1" source="B0o4pq8hTxPnNOwfh83C-57" target="B0o4pq8hTxPnNOwfh83C-73">
          <mxGeometry relative="1" as="geometry">
            <mxPoint x="1430" y="340" as="targetPoint" />
          </mxGeometry>
        </mxCell>
        <mxCell id="B0o4pq8hTxPnNOwfh83C-88" value="&lt;font style=&quot;font-size: 32px;&quot;&gt;Chirp.Web&lt;br&gt;&lt;/font&gt;" style="text;html=1;strokeColor=none;fillColor=none;align=center;verticalAlign=middle;whiteSpace=wrap;rounded=0;" vertex="1" parent="1">
          <mxGeometry x="1730" y="-350" width="60" height="30" as="geometry" />
        </mxCell>
        <mxCell id="B0o4pq8hTxPnNOwfh83C-101" style="edgeStyle=orthogonalEdgeStyle;rounded=0;orthogonalLoop=1;jettySize=auto;html=1;entryX=1;entryY=0.5;entryDx=0;entryDy=0;endArrow=block;endFill=0;" edge="1" parent="1" source="17acba5748e5396b-21" target="5d2195bd80daf111-18">
          <mxGeometry relative="1" as="geometry" />
        </mxCell>
        <mxCell id="B0o4pq8hTxPnNOwfh83C-102" style="edgeStyle=orthogonalEdgeStyle;rounded=0;orthogonalLoop=1;jettySize=auto;html=1;endArrow=block;endFill=0;" edge="1" parent="1" source="B0o4pq8hTxPnNOwfh83C-25" target="5d2195bd80daf111-19">
          <mxGeometry relative="1" as="geometry" />
        </mxCell>
        <mxCell id="B0o4pq8hTxPnNOwfh83C-103" style="edgeStyle=orthogonalEdgeStyle;rounded=0;orthogonalLoop=1;jettySize=auto;html=1;entryX=1;entryY=0.5;entryDx=0;entryDy=0;endArrow=block;endFill=0;" edge="1" parent="1" source="B0o4pq8hTxPnNOwfh83C-40" target="5d2195bd80daf111-20">
          <mxGeometry relative="1" as="geometry" />
        </mxCell>
        <mxCell id="B0o4pq8hTxPnNOwfh83C-118" value="" style="group" vertex="1" connectable="0" parent="1">
          <mxGeometry x="1390" y="560" width="310" height="250" as="geometry" />
        </mxCell>
        <mxCell id="B0o4pq8hTxPnNOwfh83C-104" value="" style="whiteSpace=wrap;html=1;" vertex="1" parent="B0o4pq8hTxPnNOwfh83C-118">
          <mxGeometry width="310" height="250" as="geometry" />
        </mxCell>
        <mxCell id="B0o4pq8hTxPnNOwfh83C-105" value="&lt;b&gt;Legend&lt;/b&gt;" style="text;html=1;strokeColor=none;fillColor=none;align=center;verticalAlign=middle;whiteSpace=wrap;rounded=0;" vertex="1" parent="B0o4pq8hTxPnNOwfh83C-118">
          <mxGeometry x="10" width="60" height="30" as="geometry" />
        </mxCell>
        <mxCell id="B0o4pq8hTxPnNOwfh83C-106" value="" style="rounded=0;whiteSpace=wrap;html=1;" vertex="1" parent="B0o4pq8hTxPnNOwfh83C-118">
          <mxGeometry x="20" y="40" width="80" height="40" as="geometry" />
        </mxCell>
        <mxCell id="B0o4pq8hTxPnNOwfh83C-107" value="" style="rounded=1;whiteSpace=wrap;html=1;" vertex="1" parent="B0o4pq8hTxPnNOwfh83C-118">
          <mxGeometry x="20" y="90" width="80" height="40" as="geometry" />
        </mxCell>
        <mxCell id="B0o4pq8hTxPnNOwfh83C-108" value="" style="endArrow=open;html=1;rounded=0;dashed=1;endFill=0;" edge="1" parent="B0o4pq8hTxPnNOwfh83C-118">
          <mxGeometry width="50" height="50" relative="1" as="geometry">
            <mxPoint x="40" y="170" as="sourcePoint" />
            <mxPoint x="70" y="140" as="targetPoint" />
          </mxGeometry>
        </mxCell>
        <mxCell id="B0o4pq8hTxPnNOwfh83C-109" value="" style="endArrow=block;html=1;rounded=0;endFill=0;" edge="1" parent="B0o4pq8hTxPnNOwfh83C-118">
          <mxGeometry width="50" height="50" relative="1" as="geometry">
            <mxPoint x="30" y="220" as="sourcePoint" />
            <mxPoint x="60" y="190" as="targetPoint" />
          </mxGeometry>
        </mxCell>
        <mxCell id="B0o4pq8hTxPnNOwfh83C-110" value="A class, text contents explain fields and methods" style="text;html=1;strokeColor=none;fillColor=none;align=center;verticalAlign=middle;whiteSpace=wrap;rounded=0;" vertex="1" parent="B0o4pq8hTxPnNOwfh83C-118">
          <mxGeometry x="130" y="45" width="150" height="30" as="geometry" />
        </mxCell>
        <mxCell id="B0o4pq8hTxPnNOwfh83C-112" value="A folder, text contents explain documents contained in the folder" style="text;html=1;strokeColor=none;fillColor=none;align=center;verticalAlign=middle;whiteSpace=wrap;rounded=0;" vertex="1" parent="B0o4pq8hTxPnNOwfh83C-118">
          <mxGeometry x="140" y="95" width="150" height="30" as="geometry" />
        </mxCell>
        <mxCell id="B0o4pq8hTxPnNOwfh83C-113" value="Arrow representing usage dependencies" style="text;html=1;strokeColor=none;fillColor=none;align=center;verticalAlign=middle;whiteSpace=wrap;rounded=0;" vertex="1" parent="B0o4pq8hTxPnNOwfh83C-118">
          <mxGeometry x="130" y="140" width="150" height="30" as="geometry" />
        </mxCell>
        <mxCell id="B0o4pq8hTxPnNOwfh83C-114" value="Arrow representing inheritance" style="text;html=1;strokeColor=none;fillColor=none;align=center;verticalAlign=middle;whiteSpace=wrap;rounded=0;" vertex="1" parent="B0o4pq8hTxPnNOwfh83C-118">
          <mxGeometry x="130" y="190" width="150" height="30" as="geometry" />
        </mxCell>
        <mxCell id="B0o4pq8hTxPnNOwfh83C-39" value="FollowRepository" style="swimlane;html=1;fontStyle=0;childLayout=stackLayout;horizontal=1;startSize=26;fillColor=none;horizontalStack=0;resizeParent=1;resizeLast=0;collapsible=1;marginBottom=0;swimlaneFillColor=#ffffff;rounded=0;shadow=0;comic=0;labelBackgroundColor=none;strokeWidth=1;fontFamily=Verdana;fontSize=10;align=center;" vertex="1" parent="1">
          <mxGeometry x="808" y="447" width="160" height="60" as="geometry" />
        </mxCell>
        <mxCell id="B0o4pq8hTxPnNOwfh83C-40" value="- _context: ChirpContext" style="text;html=1;strokeColor=none;fillColor=none;align=left;verticalAlign=top;spacingLeft=4;spacingRight=4;whiteSpace=wrap;overflow=hidden;rotatable=0;points=[[0,0.5],[1,0.5]];portConstraint=eastwest;" vertex="1" parent="B0o4pq8hTxPnNOwfh83C-39">
          <mxGeometry y="26" width="160" height="26" as="geometry" />
        </mxCell>
        <mxCell id="B0o4pq8hTxPnNOwfh83C-120" style="edgeStyle=orthogonalEdgeStyle;rounded=0;orthogonalLoop=1;jettySize=auto;html=1;entryX=0.024;entryY=0.977;entryDx=0;entryDy=0;entryPerimeter=0;dashed=1;endArrow=open;endFill=0;" edge="1" parent="1" source="B0o4pq8hTxPnNOwfh83C-40" target="B0o4pq8hTxPnNOwfh83C-66">
          <mxGeometry relative="1" as="geometry">
            <mxPoint x="1618" y="86" as="targetPoint" />
            <Array as="points">
              <mxPoint x="1487" y="486" />
              <mxPoint x="1487" y="56" />
            </Array>
          </mxGeometry>
        </mxCell>
      </root>
    </mxGraphModel>
  </diagram>
</mxfile>
